<?xml version="1.0" standalone="no"?>
<svg viewBox="0 0 200 200" xmlns="http://www.w3.org/2000/svg">
  <path fill="#F2F4F8" d="M34.4,-66C40.5,-56.2,38.4,-38.5,46.3,-26.2C54.3,-14,72.4,-7,73.9,0.8C75.3,8.7,60.2,17.3,50.7,27C41.2,36.7,37.4,47.5,29.9,54C22.4,60.5,11.2,62.8,-1,64.6C-13.2,66.4,-26.5,67.6,-34.4,61.3C-42.4,55.1,-45.2,41.4,-47.7,29.9C-50.2,18.4,-52.5,9.2,-56.8,-2.5C-61.1,-14.2,-67.5,-28.4,-64.1,-38.3C-60.7,-48.2,-47.5,-53.9,-35.2,-60.1C-22.9,-66.4,-11.4,-73.3,1.4,-75.7C14.2,-78.1,28.4,-75.9,34.4,-66Z" transform="translate(100 100)" />
</svg>
